Chivo-Regular.ufo
<glyph name="quotesingle" format="1">
  <advance width="210"/>
  <unicode hex="0027"/>
  <outline>
    <contour>
      <point x="64" y="686" type="line"/>
      <point x="64" y="539" type="line"/>
      <point x="85" y="407" type="line"/>
      <point x="124" y="407" type="line"/>
      <point x="146" y="539" type="line"/>
      <point x="146" y="686" type="line"/>
    </contour>
  </outline>
</glyph>
<glyph name="period" format="1">
  <advance width="239"/>
  <unicode hex="002E"/>
  <outline>
    <contour>
      <point x="69" y="111" type="line"/>
      <point x="69" y="0" type="line"/>
      <point x="170" y="0" type="line"/>
      <point x="170" y="111" type="line"/>
    </contour>
  </outline>
</glyph>
<glyph name="four" format="1">
  <advance width="615"/>
  <unicode hex="0034"/>
  <outline>
    <contour>
      <point x="263" y="696" type="line"/>
      <point x="212" y="541"/>
      <point x="141" y="395"/>
      <point x="50" y="259" type="curve"/>
      <point x="50" y="169" type="line"/>
      <point x="373" y="169" type="line"/>
      <point x="373" y="0" type="line"/>
      <point x="471" y="0" type="line"/>
      <point x="471" y="169" type="line"/>
      <point x="558" y="169" type="line"/>
      <point x="558" y="258" type="line"/>
      <point x="471" y="258" type="line"/>
      <point x="471" y="594" type="line"/>
      <point x="427" y="594" type="line"/>
      <point x="414" y="548"/>
      <point x="396" y="502"/>
      <point x="373" y="457" type="curve"/>
      <point x="373" y="258" type="line"/>
      <point x="143" y="258" type="line"/>
      <point x="218" y="346"/>
      <point x="330" y="561"/>
      <point x="368" y="696" type="curve"/>
    </contour>
  </outline>
</glyph>
<glyph name="seven" format="1">
  <advance width="615"/>
  <unicode hex="0037"/>
  <outline>
    <contour>
      <point x="73" y="686" type="line"/>
      <point x="73" y="597" type="line"/>
      <point x="430" y="597" type="line"/>
      <point x="263" y="388"/>
      <point x="180" y="189"/>
      <point x="180" y="0" type="curve"/>
      <point x="294" y="0" type="line"/>
      <point x="293" y="12"/>
      <point x="292" y="21"/>
      <point x="292" y="28" type="curve" smooth="yes"/>
      <point x="292" y="51" type="line" smooth="yes"/>
      <point x="292" y="240"/>
      <point x="395" y="445"/>
      <point x="555" y="633" type="curve"/>
      <point x="555" y="686" type="line"/>
    </contour>
  </outline>
</glyph>
<glyph name="I" format="1">
  <advance width="364"/>
  <unicode hex="0049"/>
  <outline>
    <contour>
      <point x="53" y="686" type="line"/>
      <point x="53" y="597" type="line"/>
      <point x="133" y="597" type="line"/>
      <point x="133" y="89" type="line"/>
      <point x="53" y="89" type="line"/>
      <point x="53" y="0" type="line"/>
      <point x="311" y="0" type="line"/>
      <point x="311" y="89" type="line"/>
      <point x="231" y="89" type="line"/>
      <point x="231" y="597" type="line"/>
      <point x="311" y="597" type="line"/>
      <point x="311" y="686" type="line"/>
    </contour>
    <contour>
      <point x="288" y="10" type="move" name="ogonek"/>
    </contour>
    <contour>
      <point x="182" y="686" type="move" name="top"/>
    </contour>
  </outline>
</glyph>
<glyph name="K" format="1">
  <advance width="623"/>
  <unicode hex="004B"/>
  <outline>
    <contour>
      <point x="488" y="686" type="line"/>
      <point x="190" y="329" type="line"/>
      <point x="190" y="686" type="line"/>
      <point x="92" y="686" type="line"/>
      <point x="92" y="0" type="line"/>
      <point x="190" y="0" type="line"/>
      <point x="190" y="206" type="line"/>
      <point x="287" y="308" type="line"/>
      <point x="495" y="0" type="line"/>
      <point x="609" y="0" type="line"/>
      <point x="349" y="383" type="line"/>
      <point x="601" y="686" type="line"/>
    </contour>
    <contour>
      <point x="312" y="686" type="move" name="top"/>
    </contour>
    <contour>
      <point x="312" y="0" type="move" name="bottom"/>
    </contour>
  </outline>
</glyph>
<glyph name="N" format="1">
  <advance width="694"/>
  <unicode hex="004E"/>
  <outline>
    <contour>
      <point x="513" y="686" type="line"/>
      <point x="513" y="191" type="line"/>
      <point x="510" y="190" type="line"/>
      <point x="178" y="686" type="line"/>
      <point x="92" y="686" type="line"/>
      <point x="92" y="0" type="line"/>
      <point x="181" y="0" type="line"/>
      <point x="181" y="501" type="line"/>
      <point x="184" y="502" type="line"/>
      <point x="519" y="0" type="line"/>
      <point x="602" y="0" type="line"/>
      <point x="602" y="686" type="line"/>
    </contour>
    <contour>
      <point x="347" y="686" type="move" name="top"/>
    </contour>
    <contour>
      <point x="347" y="0" type="move" name="bottom"/>
    </contour>
  </outline>
</glyph>
<glyph name="O" format="1">
  <advance width="690"/>
  <unicode hex="004F"/>
  <outline>
    <contour>
      <point x="175" y="696"/>
      <point x="61" y="581"/>
      <point x="61" y="388" type="curve" smooth="yes"/>
      <point x="61" y="298" type="line" smooth="yes"/>
      <point x="61" y="105"/>
      <point x="175" y="-10"/>
      <point x="345" y="-10" type="curve" smooth="yes"/>
      <point x="515" y="-10"/>
      <point x="629" y="105"/>
      <point x="629" y="298" type="curve" smooth="yes"/>
      <point x="629" y="388" type="line" smooth="yes"/>
      <point x="629" y="581"/>
      <point x="515" y="696"/>
      <point x="345" y="696" type="curve" smooth="yes"/>
    </contour>
    <contour>
      <point x="467" y="607"/>
      <point x="531" y="530"/>
      <point x="531" y="388" type="curve" smooth="yes"/>
      <point x="531" y="298" type="line" smooth="yes"/>
      <point x="531" y="151"/>
      <point x="459" y="79"/>
      <point x="345" y="79" type="curve" smooth="yes"/>
      <point x="223" y="79"/>
      <point x="159" y="156"/>
      <point x="159" y="298" type="curve" smooth="yes"/>
      <point x="159" y="388" type="line" smooth="yes"/>
      <point x="159" y="533"/>
      <point x="229" y="607"/>
      <point x="345" y="607" type="curve" smooth="yes"/>
    </contour>
    <contour>
      <point x="345" y="686" type="move" name="top"/>
    </contour>
  </outline>
</glyph>
<glyph name="Y" format="1">
  <advance width="572"/>
  <unicode hex="0059"/>
  <outline>
    <contour>
      <point x="475" y="686" type="line"/>
      <point x="294" y="367" type="line"/>
      <point x="290" y="367" type="line"/>
      <point x="107" y="686" type="line"/>
      <point x="-5" y="686" type="line"/>
      <point x="237" y="265" type="line"/>
      <point x="237" y="0" type="line"/>
      <point x="335" y="0" type="line"/>
      <point x="335" y="265" type="line"/>
      <point x="576" y="686" type="line"/>
    </contour>
    <contour>
      <point x="286" y="686" type="move" name="top"/>
    </contour>
  </outline>
</glyph>
<glyph name="bracketright" format="1">
  <advance width="293"/>
  <unicode hex="005D"/>
  <outline>
    <contour>
      <point x="39" y="686" type="line"/>
      <point x="39" y="631" type="line"/>
      <point x="127" y="631" type="line"/>
      <point x="127" y="-106" type="line"/>
      <point x="39" y="-106" type="line"/>
      <point x="39" y="-161" type="line"/>
      <point x="208" y="-161" type="line"/>
      <point x="208" y="686" type="line"/>
    </contour>
  </outline>
</glyph>
<glyph name="h" format="1">
  <advance width="593"/>
  <unicode hex="0068"/>
  <outline>
    <contour>
      <point x="83" y="720" type="line"/>
      <point x="83" y="0" type="line"/>
      <point x="177" y="0" type="line"/>
      <point x="177" y="304" type="line" smooth="yes"/>
      <point x="177" y="383"/>
      <point x="241" y="446"/>
      <point x="313" y="446" type="curve" smooth="yes"/>
      <point x="377" y="446"/>
      <point x="421" y="414"/>
      <point x="421" y="327" type="curve" smooth="yes"/>
      <point x="421" y="0" type="line"/>
      <point x="515" y="0" type="line"/>
      <point x="515" y="344" type="line" smooth="yes"/>
      <point x="515" y="462"/>
      <point x="444" y="521"/>
      <point x="335" y="521" type="curve" smooth="yes"/>
      <point x="272" y="521"/>
      <point x="219" y="496"/>
      <point x="177" y="447" type="curve"/>
      <point x="177" y="720" type="line"/>
    </contour>
    <contour>
      <point x="297" y="256" type="move" name="center"/>
    </contour>
    <contour>
      <point x="136" y="686" type="move" name="top"/>
    </contour>
  </outline>
</glyph>
<glyph name="l" format="1">
  <advance width="268"/>
  <unicode hex="006C"/>
  <outline>
    <contour>
      <point x="87" y="720" type="line"/>
      <point x="87" y="0" type="line"/>
      <point x="181" y="0" type="line"/>
      <point x="181" y="720" type="line"/>
    </contour>
    <contour>
      <point x="134" y="686" type="move" name="top"/>
    </contour>
    <contour>
      <point x="134" y="0" type="move" name="bottom"/>
    </contour>
    <contour>
      <point x="298" y="686" type="move" name="topright"/>
    </contour>
  </outline>
</glyph>
<glyph name="p" format="1">
  <advance width="583"/>
  <unicode hex="0070"/>
  <outline>
    <contour>
      <point x="257" y="521"/>
      <point x="204" y="494"/>
      <point x="166" y="441" type="curve"/>
      <point x="161" y="475"/>
      <point x="156" y="498"/>
      <point x="153" y="511" type="curve"/>
      <point x="83" y="511" type="line"/>
      <point x="83" y="-181" type="line"/>
      <point x="177" y="-181" type="line"/>
      <point x="177" y="65" type="line"/>
      <point x="212" y="15"/>
      <point x="261" y="-10"/>
      <point x="324" y="-10" type="curve" smooth="yes"/>
      <point x="456" y="-10"/>
      <point x="531" y="89"/>
      <point x="531" y="244" type="curve" smooth="yes"/>
      <point x="531" y="255" type="line" smooth="yes"/>
      <point x="531" y="421"/>
      <point x="453" y="521"/>
      <point x="324" y="521" type="curve" smooth="yes"/>
    </contour>
    <contour>
      <point x="392" y="446"/>
      <point x="437" y="388"/>
      <point x="437" y="256" type="curve" smooth="yes"/>
      <point x="437" y="126"/>
      <point x="395" y="65"/>
      <point x="307" y="65" type="curve" smooth="yes"/>
      <point x="219" y="65"/>
      <point x="176" y="124"/>
      <point x="176" y="256" type="curve" smooth="yes"/>
      <point x="176" y="383"/>
      <point x="216" y="446"/>
      <point x="307" y="446" type="curve" smooth="yes"/>
    </contour>
  </outline>
</glyph>
<glyph name="w" format="1">
  <advance width="811"/>
  <unicode hex="0077"/>
  <outline>
    <contour>
      <point x="697" y="511" type="line"/>
      <point x="576" y="137" type="line"/>
      <point x="572" y="137" type="line"/>
      <point x="453" y="511" type="line"/>
      <point x="361" y="511" type="line"/>
      <point x="240" y="137" type="line"/>
      <point x="236" y="137" type="line"/>
      <point x="117" y="511" type="line"/>
      <point x="20" y="511" type="line"/>
      <point x="188" y="0" type="line"/>
      <point x="286" y="0" type="line"/>
      <point x="402" y="357" type="line"/>
      <point x="406" y="357" type="line"/>
      <point x="524" y="0" type="line"/>
      <point x="622" y="0" type="line"/>
      <point x="789" y="511" type="line"/>
    </contour>
    <contour>
      <point x="406" y="511" type="move" name="top"/>
    </contour>
  </outline>
</glyph>
<glyph name="z" format="1">
  <advance width="463"/>
  <unicode hex="007A"/>
  <outline>
    <contour>
      <point x="51" y="511" type="line"/>
      <point x="51" y="436" type="line"/>
      <point x="285" y="436" type="line"/>
      <point x="36" y="38" type="line"/>
      <point x="36" y="0" type="line"/>
      <point x="423" y="0" type="line"/>
      <point x="423" y="75" type="line"/>
      <point x="165" y="75" type="line"/>
      <point x="415" y="474" type="line"/>
      <point x="415" y="511" type="line"/>
    </contour>
    <contour>
      <point x="232" y="511" type="move" name="top"/>
    </contour>
  </outline>
</glyph>
<glyph name="yen" format="1">
  <advance width="634"/>
  <unicode hex="00A5"/>
  <outline>
    <contour>
      <point x="506" y="686" type="line"/>
      <point x="325" y="367" type="line"/>
      <point x="321" y="367" type="line"/>
      <point x="138" y="686" type="line"/>
      <point x="26" y="686" type="line"/>
      <point x="167" y="440" type="line"/>
      <point x="59" y="440" type="line"/>
      <point x="59" y="376" type="line"/>
      <point x="204" y="376" type="line"/>
      <point x="246" y="303" type="line"/>
      <point x="59" y="303" type="line"/>
      <point x="59" y="239" type="line"/>
      <point x="268" y="239" type="line"/>
      <point x="268" y="0" type="line"/>
      <point x="366" y="0" type="line"/>
      <point x="366" y="239" type="line"/>
      <point x="577" y="239" type="line"/>
      <point x="577" y="303" type="line"/>
      <point x="388" y="303" type="line"/>
      <point x="429" y="376" type="line"/>
      <point x="577" y="376" type="line"/>
      <point x="577" y="440" type="line"/>
      <point x="466" y="440" type="line"/>
      <point x="607" y="686" type="line"/>
    </contour>
  </outline>
</glyph>
<glyph name="dieresis" format="1">
  <advance width="440"/>
  <unicode hex="00A8"/>
  <outline>
    <contour>
      <point x="269" y="731" type="line"/>
      <point x="269" y="633" type="line"/>
      <point x="360" y="633" type="line"/>
      <point x="360" y="731" type="line"/>
    </contour>
    <contour>
      <point x="81" y="731" type="line"/>
      <point x="81" y="633" type="line"/>
      <point x="171" y="633" type="line"/>
      <point x="171" y="731" type="line"/>
    </contour>
    <contour>
      <point x="221" y="511" type="move" name="_top"/>
    </contour>
  </outline>
</glyph>
<glyph name="logicalnot" format="1">
  <advance width="617"/>
  <unicode hex="00AC"/>
  <outline>
    <contour>
      <point x="37" y="453" type="line"/>
      <point x="37" y="360" type="line"/>
      <point x="472" y="360" type="line"/>
      <point x="472" y="174" type="line"/>
      <point x="556" y="174" type="line"/>
      <point x="556" y="453" type="line"/>
    </contour>
  </outline>
</glyph>
<glyph name="uni00B3" format="1">
  <advance width="363"/>
  <unicode hex="00B3"/>
  <outline>
    <contour>
      <point x="175" y="800" type="line" smooth="yes"/>
      <point x="103" y="800"/>
      <point x="51" y="761"/>
      <point x="51" y="698" type="curve" smooth="yes"/>
      <point x="51" y="688" type="line"/>
      <point x="105" y="688" type="line"/>
      <point x="105" y="693" type="line" smooth="yes"/>
      <point x="105" y="732"/>
      <point x="136" y="751"/>
      <point x="176" y="751" type="curve" smooth="yes"/>
      <point x="215" y="751"/>
      <point x="248" y="735"/>
      <point x="248" y="695" type="curve" smooth="yes"/>
      <point x="248" y="654"/>
      <point x="214" y="634"/>
      <point x="173" y="634" type="curve" smooth="yes"/>
      <point x="131" y="634" type="line"/>
      <point x="131" y="585" type="line"/>
      <point x="172" y="585" type="line" smooth="yes"/>
      <point x="216" y="585"/>
      <point x="257" y="570"/>
      <point x="257" y="526" type="curve" smooth="yes"/>
      <point x="257" y="481"/>
      <point x="225" y="461"/>
      <point x="174" y="461" type="curve" smooth="yes"/>
      <point x="122" y="461"/>
      <point x="96" y="481"/>
      <point x="96" y="522" type="curve" smooth="yes"/>
      <point x="96" y="528" type="line"/>
      <point x="42" y="528" type="line"/>
      <point x="42" y="524" type="line" smooth="yes"/>
      <point x="42" y="456"/>
      <point x="89" y="412"/>
      <point x="173" y="412" type="curve" smooth="yes"/>
      <point x="180" y="412" type="line" smooth="yes"/>
      <point x="256" y="412"/>
      <point x="311" y="454"/>
      <point x="311" y="519" type="curve" smooth="yes"/>
      <point x="311" y="565"/>
      <point x="288" y="596"/>
      <point x="242" y="613" type="curve"/>
      <point x="282" y="632"/>
      <point x="302" y="660"/>
      <point x="302" y="698" type="curve" smooth="yes"/>
      <point x="302" y="761"/>
      <point x="249" y="800"/>
      <point x="180" y="800" type="curve" smooth="yes"/>
    </contour>
  </outline>
</glyph>
<glyph name="onehalf" format="1">
  <advance width="726"/>
  <unicode hex="00BD"/>
  <outline>
    <contour>
      <point x="543" y="686" type="line"/>
      <point x="123" y="0" type="line"/>
      <point x="178" y="0" type="line"/>
      <point x="595" y="686" type="line"/>
    </contour>
    <contour>
      <point x="165" y="684" type="line"/>
      <point x="114" y="662"/>
      <point x="70" y="650"/>
      <point x="33" y="647" type="curve"/>
      <point x="33" y="612" type="line"/>
      <point x="132" y="612" type="line"/>
      <point x="132" y="359" type="line"/>
      <point x="33" y="359" type="line"/>
      <point x="33" y="310" type="line"/>
      <point x="267" y="310" type="line"/>
      <point x="267" y="359" type="line"/>
      <point x="186" y="359" type="line"/>
      <point x="186" y="684" type="line"/>
    </contour>
    <contour>
      <point x="518" y="383"/>
      <point x="479" y="364"/>
      <point x="456" y="326" type="curve" smooth="yes"/>
      <point x="439" y="297"/>
      <point x="437" y="265"/>
      <point x="437" y="258" type="curve" smooth="yes"/>
      <point x="437" y="254"/>
      <point x="437" y="250"/>
      <point x="438" y="247" type="curve"/>
      <point x="491" y="247" type="line"/>
      <point x="491" y="261" type="line" smooth="yes"/>
      <point x="491" y="289"/>
      <point x="510" y="334"/>
      <point x="567" y="334" type="curve" smooth="yes"/>
      <point x="618" y="334"/>
      <point x="641" y="305"/>
      <point x="641" y="271" type="curve" smooth="yes"/>
      <point x="641" y="240"/>
      <point x="627" y="214"/>
      <point x="598" y="193" type="curve" smooth="yes"/>
      <point x="488" y="111" type="line" smooth="yes"/>
      <point x="454" y="86"/>
      <point x="437" y="52"/>
      <point x="437" y="13" type="curve" smooth="yes"/>
      <point x="437" y="0" type="line"/>
      <point x="696" y="0" type="line"/>
      <point x="696" y="49" type="line"/>
      <point x="496" y="49" type="line"/>
      <point x="496" y="54"/>
      <point x="505" y="62"/>
      <point x="522" y="75" type="curve" smooth="yes"/>
      <point x="627" y="155" type="line" smooth="yes"/>
      <point x="684" y="198"/>
      <point x="695" y="229"/>
      <point x="695" y="277" type="curve" smooth="yes"/>
      <point x="695" y="333"/>
      <point x="645" y="383"/>
      <point x="571" y="383" type="curve" smooth="yes"/>
    </contour>
  </outline>
</glyph>
<glyph name="Egrave" format="1">
  <advance width="593"/>
  <unicode hex="00C8"/>
  <outline>
    <contour>
      <point x="92" y="686" type="line"/>
      <point x="92" y="0" type="line"/>
      <point x="549" y="0" type="line"/>
      <point x="535" y="89" type="line"/>
      <point x="190" y="89" type="line"/>
      <point x="190" y="306" type="line"/>
      <point x="497" y="306" type="line"/>
      <point x="497" y="395" type="line"/>
      <point x="190" y="395" type="line"/>
      <point x="190" y="597" type="line"/>
      <point x="529" y="597" type="line"/>
      <point x="542" y="686" type="line"/>
    </contour>
    <contour>
      <point x="181" y="895" type="line"/>
      <point x="180" y="892" type="line"/>
      <point x="295" y="750" type="line"/>
      <point x="365" y="750" type="line"/>
      <point x="270" y="895" type="line"/>
    </contour>
  </outline>
</glyph>
<glyph name="Ecircumflex" format="1">
  <advance width="593"/>
  <unicode hex="00CA"/>
  <outline>
    <contour>
      <point x="92" y="686" type="line"/>
      <point x="92" y="0" type="line"/>
      <point x="549" y="0" type="line"/>
      <point x="535" y="89" type="line"/>
      <point x="190" y="89" type="line"/>
      <point x="190" y="306" type="line"/>
      <point x="497" y="306" type="line"/>
      <point x="497" y="395" type="line"/>
      <point x="190" y="395" type="line"/>
      <point x="190" y="597" type="line"/>
      <point x="529" y="597" type="line"/>
      <point x="542" y="686" type="line"/>
    </contour>
    <contour>
      <point x="276" y="895" type="line"/>
      <point x="140" y="750" type="line"/>
      <point x="220" y="750" type="line"/>
      <point x="315" y="839" type="line"/>
      <point x="409" y="750" type="line"/>
      <point x="489" y="750" type="line"/>
      <point x="354" y="895" type="line"/>
    </contour>
  </outline>
</glyph>
<glyph name="Icircumflex" format="1">
  <advance width="364"/>
  <unicode hex="00CE"/>
  <outline>
    <contour>
      <point x="53" y="686" type="line"/>
      <point x="53" y="597" type="line"/>
      <point x="133" y="597" type="line"/>
      <point x="133" y="89" type="line"/>
      <point x="53" y="89" type="line"/>
      <point x="53" y="0" type="line"/>
      <point x="311" y="0" type="line"/>
      <point x="311" y="89" type="line"/>
      <point x="231" y="89" type="line"/>
      <point x="231" y="597" type="line"/>
      <point x="311" y="597" type="line"/>
      <point x="311" y="686" type="line"/>
    </contour>
    <contour>
      <point x="144" y="895" type="line"/>
      <point x="8" y="750" type="line"/>
      <point x="88" y="750" type="line"/>
      <point x="183" y="839" type="line"/>
      <point x="277" y="750" type="line"/>
      <point x="357" y="750" type="line"/>
      <point x="222" y="895" type="line"/>
    </contour>
  </outline>
</glyph>
<glyph name="Ntilde" format="1">
  <advance width="694"/>
  <unicode hex="00D1"/>
  <outline>
    <contour>
      <point x="513" y="686" type="line"/>
      <point x="513" y="191" type="line"/>
      <point x="510" y="190" type="line"/>
      <point x="178" y="686" type="line"/>
      <point x="92" y="686" type="line"/>
      <point x="92" y="0" type="line"/>
      <point x="181" y="0" type="line"/>
      <point x="181" y="501" type="line"/>
      <point x="184" y="502" type="line"/>
      <point x="519" y="0" type="line"/>
      <point x="602" y="0" type="line"/>
      <point x="602" y="686" type="line"/>
    </contour>
    <contour>
      <point x="491" y="854" type="line"/>
      <point x="484" y="831"/>
      <point x="465" y="819"/>
      <point x="436" y="819" type="curve" smooth="yes"/>
      <point x="419" y="819"/>
      <point x="393" y="825"/>
      <point x="356" y="836" type="curve" smooth="yes"/>
      <point x="328" y="845"/>
      <point x="301" y="854"/>
      <point x="266" y="854" type="curve" smooth="yes"/>
      <point x="194" y="854"/>
      <point x="155" y="802"/>
      <point x="155" y="750" type="curve"/>
      <point x="205" y="750" type="line"/>
      <point x="212" y="773"/>
      <point x="230" y="784"/>
      <point x="260" y="784" type="curve" smooth="yes"/>
      <point x="289" y="784"/>
      <point x="304" y="777"/>
      <point x="359" y="761" type="curve" smooth="yes"/>
      <point x="385" y="753"/>
      <point x="409" y="750"/>
      <point x="429" y="750" type="curve" smooth="yes"/>
      <point x="496" y="750"/>
      <point x="541" y="795"/>
      <point x="541" y="854" type="curve"/>
    </contour>
  </outline>
</glyph>
<glyph name="germandbls" format="1">
  <advance width="614"/>
  <unicode hex="00DF"/>
  <outline>
    <contour>
      <point x="204" y="728"/>
      <point x="106" y="644"/>
      <point x="104" y="511" type="curve"/>
      <point x="46" y="511" type="line"/>
      <point x="46" y="436" type="line"/>
      <point x="104" y="436" type="line"/>
      <point x="104" y="-66" type="line"/>
      <point x="198" y="-66" type="line"/>
      <point x="198" y="513" type="line" smooth="yes"/>
      <point x="198" y="597"/>
      <point x="251" y="653"/>
      <point x="327" y="653" type="curve" smooth="yes"/>
      <point x="403" y="653"/>
      <point x="448" y="607"/>
      <point x="448" y="540" type="curve" smooth="yes"/>
      <point x="448" y="472"/>
      <point x="393" y="420"/>
      <point x="324" y="420" type="curve" smooth="yes"/>
      <point x="259" y="420" type="line"/>
      <point x="259" y="346" type="line"/>
      <point x="332" y="346" type="line" smooth="yes"/>
      <point x="408" y="346"/>
      <point x="471" y="285"/>
      <point x="471" y="214" type="curve" smooth="yes"/>
      <point x="471" y="142"/>
      <point x="414" y="75"/>
      <point x="332" y="75" type="curve" smooth="yes"/>
      <point x="259" y="75" type="line"/>
      <point x="259" y="0" type="line"/>
      <point x="342" y="0" type="line" smooth="yes"/>
      <point x="465" y="0"/>
      <point x="565" y="89"/>
      <point x="565" y="200" type="curve" smooth="yes"/>
      <point x="565" y="291"/>
      <point x="515" y="360"/>
      <point x="444" y="387" type="curve"/>
      <point x="442" y="391" type="line"/>
      <point x="501" y="414"/>
      <point x="542" y="476"/>
      <point x="542" y="543" type="curve" smooth="yes"/>
      <point x="542" y="650"/>
      <point x="455" y="728"/>
      <point x="331" y="728" type="curve" smooth="yes"/>
    </contour>
  </outline>
</glyph>
<glyph name="ae" format="1">
  <advance width="895"/>
  <unicode hex="00E6"/>
  <outline>
    <contour>
      <point x="620" y="521" type="line" smooth="yes"/>
      <point x="551" y="521"/>
      <point x="497" y="500"/>
      <point x="457" y="457" type="curve"/>
      <point x="426" y="500"/>
      <point x="368" y="521"/>
      <point x="284" y="521" type="curve" smooth="yes"/>
      <point x="275" y="521" type="line" smooth="yes"/>
      <point x="156" y="521"/>
      <point x="65" y="458"/>
      <point x="65" y="387" type="curve" smooth="yes"/>
      <point x="65" y="372"/>
      <point x="66" y="361"/>
      <point x="67" y="354" type="curve"/>
      <point x="159" y="354" type="line"/>
      <point x="159" y="366" type="line" smooth="yes"/>
      <point x="159" y="417"/>
      <point x="201" y="446"/>
      <point x="273" y="446" type="curve" smooth="yes"/>
      <point x="344" y="446"/>
      <point x="390" y="425"/>
      <point x="390" y="354" type="curve" smooth="yes"/>
      <point x="390" y="307" type="line"/>
      <point x="133" y="307"/>
      <point x="48" y="263"/>
      <point x="48" y="142" type="curve" smooth="yes"/>
      <point x="48" y="35"/>
      <point x="105" y="-10"/>
      <point x="215" y="-10" type="curve" smooth="yes"/>
      <point x="295" y="-10"/>
      <point x="378" y="29"/>
      <point x="423" y="101" type="curve"/>
      <point x="463" y="29"/>
      <point x="534" y="-10"/>
      <point x="623" y="-10" type="curve" smooth="yes"/>
      <point x="627" y="-10" type="line" smooth="yes"/>
      <point x="754" y="-10"/>
      <point x="841" y="71"/>
      <point x="841" y="190" type="curve"/>
      <point x="752" y="190" type="line"/>
      <point x="752" y="130"/>
      <point x="720" y="65"/>
      <point x="629" y="65" type="curve" smooth="yes"/>
      <point x="533" y="65"/>
      <point x="487" y="128"/>
      <point x="484" y="234" type="curve"/>
      <point x="841" y="234" type="line"/>
      <point x="841" y="305" type="line" smooth="yes"/>
      <point x="841" y="439"/>
      <point x="752" y="521"/>
      <point x="627" y="521" type="curve" smooth="yes"/>
    </contour>
    <contour>
      <point x="390" y="214" type="line" smooth="yes"/>
      <point x="390" y="122"/>
      <point x="321" y="65"/>
      <point x="247" y="65" type="curve" smooth="yes"/>
      <point x="177" y="65"/>
      <point x="142" y="88"/>
      <point x="142" y="134" type="curve" smooth="yes"/>
      <point x="142" y="202"/>
      <point x="175" y="234"/>
      <point x="390" y="234" type="curve"/>
    </contour>
    <contour>
      <point x="698" y="446"/>
      <point x="748" y="395"/>
      <point x="748" y="319" type="curve" smooth="yes"/>
      <point x="748" y="307" type="line"/>
      <point x="486" y="307" type="line"/>
      <point x="497" y="400"/>
      <point x="547" y="446"/>
      <point x="622" y="446" type="curve" smooth="yes"/>
    </contour>
    <contour>
      <point x="448" y="511" type="move" name="top"/>
    </contour>
  </outline>
</glyph>
<glyph name="edieresis" format="1">
  <advance width="556"/>
  <unicode hex="00EB"/>
  <outline>
    <contour>
      <point x="281" y="521" type="line" smooth="yes"/>
      <point x="139" y="521"/>
      <point x="51" y="417"/>
      <point x="51" y="265" type="curve" smooth="yes"/>
      <point x="51" y="245" type="line" smooth="yes"/>
      <point x="51" y="91"/>
      <point x="139" y="-10"/>
      <point x="284" y="-10" type="curve" smooth="yes"/>
      <point x="288" y="-10" type="line" smooth="yes"/>
      <point x="413" y="-10"/>
      <point x="502" y="69"/>
      <point x="502" y="190" type="curve"/>
      <point x="413" y="190" type="line"/>
      <point x="413" y="130"/>
      <point x="381" y="65"/>
      <point x="290" y="65" type="curve" smooth="yes"/>
      <point x="194" y="65"/>
      <point x="148" y="128"/>
      <point x="145" y="234" type="curve"/>
      <point x="502" y="234" type="line"/>
      <point x="502" y="305" type="line" smooth="yes"/>
      <point x="502" y="437"/>
      <point x="414" y="521"/>
      <point x="288" y="521" type="curve" smooth="yes"/>
    </contour>
    <contour>
      <point x="359" y="446"/>
      <point x="409" y="395"/>
      <point x="409" y="319" type="curve" smooth="yes"/>
      <point x="409" y="307" type="line"/>
      <point x="147" y="307" type="line"/>
      <point x="158" y="400"/>
      <point x="208" y="446"/>
      <point x="283" y="446" type="curve" smooth="yes"/>
    </contour>
    <contour>
      <point x="143" y="720" type="line"/>
      <point x="143" y="622" type="line"/>
      <point x="233" y="622" type="line"/>
      <point x="233" y="720" type="line"/>
    </contour>
    <contour>
      <point x="331" y="720" type="line"/>
      <point x="331" y="622" type="line"/>
      <point x="422" y="622" type="line"/>
      <point x="422" y="720" type="line"/>
    </contour>
  </outline>
</glyph>
<glyph name="icircumflex" format="1">
  <advance width="260"/>
  <unicode hex="00EE"/>
  <outline>
    <contour>
      <point x="92" y="720" type="line"/>
      <point x="-44" y="575" type="line"/>
      <point x="36" y="575" type="line"/>
      <point x="131" y="664" type="line"/>
      <point x="225" y="575" type="line"/>
      <point x="305" y="575" type="line"/>
      <point x="170" y="720" type="line"/>
    </contour>
    <contour>
      <point x="83" y="511" type="line"/>
      <point x="83" y="0" type="line"/>
      <point x="177" y="0" type="line"/>
      <point x="177" y="511" type="line"/>
    </contour>
  </outline>
</glyph>
<glyph name="idieresis" format="1">
  <advance width="260"/>
  <unicode hex="00EF"/>
  <outline>
    <contour>
      <point x="83" y="511" type="line"/>
      <point x="83" y="0" type="line"/>
      <point x="177" y="0" type="line"/>
      <point x="177" y="511" type="line"/>
    </contour>
    <contour>
      <point x="-9" y="720" type="line"/>
      <point x="-9" y="622" type="line"/>
      <point x="83" y="622" type="line"/>
      <point x="83" y="720" type="line"/>
    </contour>
    <contour>
      <point x="179" y="720" type="line"/>
      <point x="179" y="622" type="line"/>
      <point x="270" y="622" type="line"/>
      <point x="270" y="720" type="line"/>
    </contour>
  </outline>
</glyph>
<glyph name="Ydieresis" format="1">
  <advance width="572"/>
  <unicode hex="0178"/>
  <outline>
    <contour>
      <point x="475" y="686" type="line"/>
      <point x="294" y="367" type="line"/>
      <point x="290" y="367" type="line"/>
      <point x="107" y="686" type="line"/>
      <point x="-5" y="686" type="line"/>
      <point x="237" y="265" type="line"/>
      <point x="237" y="0" type="line"/>
      <point x="335" y="0" type="line"/>
      <point x="335" y="265" type="line"/>
      <point x="576" y="686" type="line"/>
    </contour>
    <contour>
      <point x="158" y="847" type="line"/>
      <point x="158" y="749" type="line"/>
      <point x="248" y="749" type="line"/>
      <point x="248" y="847" type="line"/>
    </contour>
    <contour>
      <point x="346" y="847" type="line"/>
      <point x="346" y="749" type="line"/>
      <point x="437" y="749" type="line"/>
      <point x="437" y="847" type="line"/>
    </contour>
  </outline>
</glyph>
<glyph name="caron" format="1">
  <advance width="536"/>
  <unicode hex="02C7"/>
  <outline>
    <contour>
      <point x="361" y="720" type="line"/>
      <point x="267" y="631" type="line"/>
      <point x="172" y="720" type="line"/>
      <point x="92" y="720" type="line"/>
      <point x="228" y="575" type="line"/>
      <point x="306" y="575" type="line"/>
      <point x="441" y="720" type="line"/>
    </contour>
    <contour>
      <point x="267" y="511" type="move" name="_top"/>
    </contour>
  </outline>
</glyph>
<glyph name="hungarumlaut" format="1">
  <advance width="442"/>
  <unicode hex="02DD"/>
  <outline>
    <contour>
      <point x="300" y="720" type="line"/>
      <point x="206" y="575" type="line"/>
      <point x="276" y="575" type="line"/>
      <point x="391" y="717" type="line"/>
      <point x="390" y="720" type="line"/>
    </contour>
    <contour>
      <point x="146" y="720" type="line"/>
      <point x="51" y="575" type="line"/>
      <point x="121" y="575" type="line"/>
      <point x="236" y="717" type="line"/>
      <point x="235" y="720" type="line"/>
    </contour>
    <contour>
      <point x="181" y="511" type="move" name="_top"/>
    </contour>
  </outline>
</glyph>
<glyph name="uni0326" format="1">
  <advance width="238"/>
  <unicode hex="0326"/>
  <outline>
    <contour>
      <point x="69" y="-40" type="line"/>
      <point x="69" y="-151" type="line"/>
      <point x="110" y="-151" type="line"/>
      <point x="88" y="-250" type="line"/>
      <point x="141" y="-250" type="line"/>
      <point x="170" y="-125" type="line"/>
      <point x="170" y="-40" type="line"/>
    </contour>
    <contour>
      <point x="120" y="0" type="move" name="_bottom"/>
    </contour>
  </outline>
</glyph>
<glyph name="emdash" format="1">
  <advance width="1058"/>
  <unicode hex="2014"/>
  <outline>
    <contour>
      <point x="72" y="317" type="line"/>
      <point x="72" y="223" type="line"/>
      <point x="982" y="223" type="line"/>
      <point x="982" y="317" type="line"/>
    </contour>
  </outline>
</glyph>
<glyph name="quoteleft" format="1">
  <advance width="224"/>
  <unicode hex="2018"/>
  <outline>
    <contour>
      <point x="96" y="686" type="line"/>
      <point x="61" y="536" type="line"/>
      <point x="61" y="451" type="line"/>
      <point x="162" y="451" type="line"/>
      <point x="162" y="562" type="line"/>
      <point x="121" y="562" type="line"/>
      <point x="148" y="686" type="line"/>
    </contour>
  </outline>
</glyph>
<glyph name="quoteright" format="1">
  <advance width="219"/>
  <unicode hex="2019"/>
  <outline>
    <contour>
      <point x="61" y="686" type="line"/>
      <point x="61" y="575" type="line"/>
      <point x="102" y="575" type="line"/>
      <point x="75" y="451" type="line"/>
      <point x="127" y="451" type="line"/>
      <point x="162" y="601" type="line"/>
      <point x="162" y="686" type="line"/>
    </contour>
  </outline>
</glyph>
<glyph name="quotedblright" format="1">
  <advance width="361"/>
  <unicode hex="201D"/>
  <outline>
    <contour>
      <point x="203" y="686" type="line"/>
      <point x="203" y="575" type="line"/>
      <point x="244" y="575" type="line"/>
      <point x="217" y="451" type="line"/>
      <point x="269" y="451" type="line"/>
      <point x="304" y="601" type="line"/>
      <point x="304" y="686" type="line"/>
    </contour>
    <contour>
      <point x="61" y="686" type="line"/>
      <point x="61" y="575" type="line"/>
      <point x="102" y="575" type="line"/>
      <point x="75" y="451" type="line"/>
      <point x="127" y="451" type="line"/>
      <point x="162" y="601" type="line"/>
      <point x="162" y="686" type="line"/>
    </contour>
  </outline>
</glyph>
<glyph name="ellipsis" format="1">
  <advance width="735"/>
  <unicode hex="2026"/>
  <outline>
    <contour>
      <point x="564" y="111" type="line"/>
      <point x="564" y="0" type="line"/>
      <point x="666" y="0" type="line"/>
      <point x="666" y="111" type="line"/>
    </contour>
    <contour>
      <point x="69" y="111" type="line"/>
      <point x="69" y="0" type="line"/>
      <point x="171" y="0" type="line"/>
      <point x="171" y="111" type="line"/>
    </contour>
    <contour>
      <point x="317" y="111" type="line"/>
      <point x="317" y="0" type="line"/>
      <point x="419" y="0" type="line"/>
      <point x="419" y="111" type="line"/>
    </contour>
  </outline>
</glyph>
<glyph name="fraction" format="1">
  <advance width="476"/>
  <unicode hex="2044"/>
  <outline>
    <contour>
      <point x="422" y="686" type="line"/>
      <point x="2" y="0" type="line"/>
      <point x="61" y="0" type="line"/>
      <point x="478" y="686" type="line"/>
    </contour>
  </outline>
</glyph>
<glyph name="radical" format="1">
  <advance width="566"/>
  <unicode hex="221A"/>
  <outline>
    <contour>
      <point x="495" y="813" type="line"/>
      <point x="426" y="532"/>
      <point x="359" y="251"/>
      <point x="287" y="-30" type="curve"/>
      <point x="278" y="4" type="line" smooth="yes"/>
      <point x="272" y="30"/>
      <point x="242" y="106"/>
      <point x="202" y="217" type="curve" smooth="yes"/>
      <point x="139" y="391" type="line"/>
      <point x="-23" y="323" type="line"/>
      <point x="-3" y="263" type="line"/>
      <point x="74" y="293" type="line"/>
      <point x="125" y="157"/>
      <point x="182" y="10"/>
      <point x="243" y="-148" type="curve"/>
      <point x="333" y="-148" type="line"/>
      <point x="575" y="813" type="line"/>
    </contour>
  </outline>
</glyph>
<glyph name="infinity" format="1">
  <advance width="764"/>
  <unicode hex="221E"/>
  <outline>
    <contour>
      <point x="494" y="448"/>
      <point x="446" y="393"/>
      <point x="386" y="333" type="curve"/>
      <point x="334" y="398"/>
      <point x="279" y="448"/>
      <point x="194" y="448" type="curve" smooth="yes"/>
      <point x="108" y="448"/>
      <point x="37" y="374"/>
      <point x="37" y="279" type="curve" smooth="yes"/>
      <point x="37" y="188"/>
      <point x="107" y="113"/>
      <point x="192" y="113" type="curve" smooth="yes"/>
      <point x="255" y="113"/>
      <point x="296" y="132"/>
      <point x="381" y="229" type="curve"/>
      <point x="452" y="142"/>
      <point x="506" y="113"/>
      <point x="566" y="113" type="curve" smooth="yes"/>
      <point x="647" y="113"/>
      <point x="726" y="179"/>
      <point x="726" y="282" type="curve" smooth="yes"/>
      <point x="726" y="377"/>
      <point x="660" y="448"/>
      <point x="571" y="448" type="curve" smooth="yes"/>
    </contour>
    <contour>
      <point x="249" y="386"/>
      <point x="300" y="349"/>
      <point x="349" y="276" type="curve"/>
      <point x="340" y="266" type="line"/>
      <point x="310" y="235" type="line" smooth="yes"/>
      <point x="272" y="196"/>
      <point x="235" y="176"/>
      <point x="200" y="176" type="curve" smooth="yes"/>
      <point x="140" y="176"/>
      <point x="99" y="222"/>
      <point x="99" y="278" type="curve" smooth="yes"/>
      <point x="99" y="339"/>
      <point x="136" y="386"/>
      <point x="195" y="386" type="curve" smooth="yes"/>
    </contour>
    <contour>
      <point x="622" y="386"/>
      <point x="663" y="343"/>
      <point x="663" y="284" type="curve" smooth="yes"/>
      <point x="663" y="231"/>
      <point x="634" y="176"/>
      <point x="562" y="176" type="curve" smooth="yes"/>
      <point x="527" y="176"/>
      <point x="496" y="188"/>
      <point x="417" y="282" type="curve"/>
      <point x="446" y="312" type="line"/>
      <point x="489" y="361"/>
      <point x="529" y="386"/>
      <point x="566" y="386" type="curve" smooth="yes"/>
    </contour>
  </outline>
</glyph>
<glyph name="notequal" format="1">
  <advance width="615"/>
  <unicode hex="2260"/>
  <outline>
    <contour>
      <point x="443" y="511" type="line"/>
      <point x="365" y="401" type="line"/>
      <point x="56" y="401" type="line"/>
      <point x="56" y="318" type="line"/>
      <point x="312" y="318" type="line"/>
      <point x="221" y="189" type="line"/>
      <point x="56" y="189" type="line"/>
      <point x="56" y="105" type="line"/>
      <point x="168" y="105" type="line"/>
      <point x="151" y="82"/>
      <point x="127" y="47"/>
      <point x="94" y="0" type="curve"/>
      <point x="176" y="0" type="line"/>
      <point x="250" y="105" type="line"/>
      <point x="559" y="105" type="line"/>
      <point x="559" y="189" type="line"/>
      <point x="302" y="189" type="line"/>
      <point x="333" y="232"/>
      <point x="362" y="275"/>
      <point x="393" y="318" type="curve"/>
      <point x="559" y="318" type="line"/>
      <point x="559" y="401" type="line"/>
      <point x="446" y="401" type="line"/>
      <point x="522" y="511" type="line"/>
    </contour>
  </outline>
</glyph>
<glyph name="lessequal" format="1">
  <advance width="615"/>
  <unicode hex="2264"/>
  <outline>
    <contour>
      <point x="388" y="469"/>
      <point x="221" y="417"/>
      <point x="50" y="365" type="curve"/>
      <point x="50" y="258" type="line"/>
      <point x="143" y="231"/>
      <point x="312" y="179"/>
      <point x="559" y="104" type="curve"/>
      <point x="559" y="194" type="line"/>
      <point x="130" y="312" type="line"/>
      <point x="559" y="430" type="line"/>
      <point x="559" y="520" type="line"/>
    </contour>
    <contour>
      <point x="49" y="83" type="line"/>
      <point x="49" y="0" type="line"/>
      <point x="559" y="0" type="line"/>
      <point x="559" y="83" type="line"/>
    </contour>
  </outline>
</glyph>
<glyph name="greaterequal" format="1">
  <advance width="615"/>
  <unicode hex="2265"/>
  <outline>
    <contour>
      <point x="56" y="430" type="line"/>
      <point x="229" y="381"/>
      <point x="371" y="342"/>
      <point x="484" y="312" type="curve"/>
      <point x="287" y="257"/>
      <point x="144" y="218"/>
      <point x="56" y="194" type="curve"/>
      <point x="56" y="104" type="line"/>
      <point x="303" y="179"/>
      <point x="472" y="231"/>
      <point x="565" y="258" type="curve"/>
      <point x="565" y="365" type="line"/>
      <point x="56" y="520" type="line"/>
    </contour>
    <contour>
      <point x="56" y="83" type="line"/>
      <point x="56" y="0" type="line"/>
      <point x="566" y="0" type="line"/>
      <point x="566" y="83" type="line"/>
    </contour>
  </outline>
</glyph>
<glyph name="lozenge" format="1">
  <advance width="490"/>
  <unicode hex="25CA"/>
  <outline>
    <contour>
      <point x="194" y="686" type="line"/>
      <point x="29" y="343" type="line"/>
      <point x="194" y="0" type="line"/>
      <point x="297" y="0" type="line"/>
      <point x="461" y="343" type="line"/>
      <point x="297" y="686" type="line"/>
    </contour>
    <contour>
      <point x="290" y="521"/>
      <point x="334" y="432"/>
      <point x="379" y="343" type="curve"/>
      <point x="334" y="254"/>
      <point x="290" y="164"/>
      <point x="246" y="74" type="curve"/>
      <point x="112" y="343" type="line"/>
      <point x="246" y="611" type="line"/>
    </contour>
  </outline>
</glyph>
